<?xml version="1.0" standalone="no"?>
<!DOCTYPE svg PUBLIC "-//W3C//DTD SVG 20010904//EN"
 "http://www.w3.org/TR/2001/REC-SVG-20010904/DTD/svg10.dtd">
<svg version="1.0" xmlns="http://www.w3.org/2000/svg"
 width="512.000000pt" height="512.000000pt" viewBox="0 0 512.000000 512.000000"
 preserveAspectRatio="xMidYMid meet">

<g transform="translate(0.000000,512.000000) scale(0.100000,-0.100000)"
fill="#fff" stroke="none">
<path d="M340 4256 c-30 -6 -77 -22 -105 -36 -60 -29 -154 -120 -184 -178 -53
-103 -51 -53 -51 -1482 0 -1463 -3 -1388 63 -1499 62 -104 170 -178 291 -200
84 -15 4328 -15 4412 0 121 22 229 96 291 200 66 111 63 36 63 1499 0 1463 3
1388 -63 1499 -62 104 -170 178 -291 200 -89 16 -4351 14 -4426 -3z m3172
-1368 l-952 -953 -952 953 -953 952 1905 0 1905 0 -953 -952z m-2022 -338 c0
-3 -187 -236 -415 -519 -228 -282 -415 -515 -415 -517 0 -5 88 66 743 596 153
124 283 227 289 229 6 2 203 -189 439 -425 l429 -429 424 424 c273 273 429
422 437 418 8 -3 244 -188 524 -410 281 -223 511 -403 513 -402 2 2 -181 235
-405 519 -224 285 -409 520 -411 524 -1 4 234 243 523 532 l525 525 0 -1168 0
-1167 -2130 0 -2130 0 0 1167 0 1168 530 -530 c292 -291 530 -532 530 -535z"/>
</g>
</svg>
