<?xml version="1.0" standalone="no"?>
<!DOCTYPE svg PUBLIC "-//W3C//DTD SVG 20010904//EN"
 "http://www.w3.org/TR/2001/REC-SVG-20010904/DTD/svg10.dtd">
<svg version="1.0" xmlns="http://www.w3.org/2000/svg"
 width="320.000000pt" height="300.000000pt" viewBox="0 0 320.000000 300.000000"
 preserveAspectRatio="xMidYMid meet">

<g transform="translate(0.000000,300.000000) scale(0.100000,-0.100000)"
fill="#fff" stroke="none">
<path d="M0 1500 l0 -1500 1600 0 1600 0 0 1500 0 1500 -1600 0 -1600 0 0
-1500z m1953 989 l19 -27 -317 -963 c-174 -530 -323 -974 -331 -986 -9 -14
-24 -23 -39 -23 -26 0 -65 32 -65 52 0 7 144 449 320 983 210 637 326 974 337
983 25 18 53 11 76 -19z m-765 -315 c28 -20 28 -59 0 -87 -13 -12 -207 -148
-432 -302 l-408 -280 28 -22 c16 -13 210 -147 432 -299 372 -255 402 -277 402
-304 0 -35 -23 -60 -56 -60 -35 0 -956 632 -968 665 -18 47 -49 24 738 562
115 79 216 143 225 143 9 0 27 -7 39 -16z m1337 -306 c258 -178 473 -331 479
-340 26 -42 2 -62 -474 -388 -306 -210 -474 -319 -490 -319 -52 0 -78 52 -47
91 6 9 194 141 417 293 223 153 411 283 418 290 11 10 -65 66 -400 295 -227
156 -421 290 -430 298 -37 31 -11 102 37 102 12 0 229 -143 490 -322z"/>
</g>
</svg>
