<?xml version="1.0" standalone="no"?>
<!DOCTYPE svg PUBLIC "-//W3C//DTD SVG 20010904//EN"
 "http://www.w3.org/TR/2001/REC-SVG-20010904/DTD/svg10.dtd">
<svg version="1.0" xmlns="http://www.w3.org/2000/svg"
 width="268.000000pt" height="245.000000pt" viewBox="0 0 268.000000 245.000000"
 preserveAspectRatio="xMidYMid meet">

<g transform="translate(0.000000,245.000000) scale(0.100000,-0.100000)"
fill="#FFF" stroke="none">
<path d="M592 1590 c-183 -225 -332 -414 -332 -420 0 -21 662 -820 674 -813
24 15 166 137 166 143 0 3 -122 154 -270 335 -149 181 -269 334 -266 341 2 6
120 155 262 330 141 176 262 325 268 333 11 14 2 24 -115 116 l-56 44 -331
-409z"/>
<path d="M1723 1926 l-92 -73 275 -337 c175 -213 272 -340 268 -348 -4 -7
-114 -143 -243 -303 -129 -159 -249 -308 -267 -330 l-32 -40 90 -74 c75 -61
92 -71 102 -60 7 8 158 194 336 413 284 350 322 401 311 418 -8 13 -599 740
-650 800 -4 4 -48 -26 -98 -66z"/>
</g>
</svg>
